<svg width="478" height="501" viewBox="0 0 478 501" fill="none" xmlns="http://www.w3.org/2000/svg">
<path fill-rule="evenodd" clip-rule="evenodd" d="M446.645 370.198C454.127 369.66 460.63 375.528 461.168 383.254C461.314 385.552 460.141 389.708 460.141 389.708L455.056 390.002L455.74 395.527C455.74 395.527 451.291 398.07 448.601 398.216C441.12 398.754 434.617 392.886 434.079 385.161C433.492 377.435 439.164 370.736 446.645 370.198Z" fill="#49574E"/>
<path d="M468.453 316.656L467.426 418.753" stroke="#1C2628" stroke-width="2.13" stroke-linecap="round" stroke-linejoin="round"/>
<path d="M458.43 328.343L467.72 342.523" stroke="#1C2628" stroke-width="2.13" stroke-linecap="round" stroke-linejoin="round"/>
<path d="M468.111 382.961L490.702 352.645" stroke="#1C2628" stroke-width="2.13" stroke-linecap="round" stroke-linejoin="round"/>
<path d="M447.721 381.689L467.377 409.365" stroke="#1C2628" stroke-width="2.13" stroke-linecap="round" stroke-linejoin="round"/>
<path fill-rule="evenodd" clip-rule="evenodd" d="M175.219 92.7085H430.852V418.313H175.219V92.7085Z" fill="#C1FFE9" fill-opacity="0.5" stroke="#1C2628" stroke-width="2.13" stroke-linecap="round" stroke-linejoin="round"/>
<path d="M175.268 241.208L429.825 241.306" stroke="#1C2628" stroke-width="2.13" stroke-linecap="round" stroke-linejoin="round"/>
<path d="M175.268 328.098L429.825 328.196" stroke="#1C2628" stroke-width="2.13" stroke-linecap="round" stroke-linejoin="round"/>
<path fill-rule="evenodd" clip-rule="evenodd" d="M171.209 407.409H439.946V420.807H171.209V407.409Z" fill="#1C2628" stroke="#1C2628" stroke-width="2.13" stroke-linecap="round" stroke-linejoin="round"/>
<path d="M303.865 94.1758L307.63 418.167" stroke="#1C2628" stroke-width="2.13" stroke-linecap="round" stroke-linejoin="round"/>
<path fill-rule="evenodd" clip-rule="evenodd" d="M269.295 315.923C261.911 328.196 238.001 376.848 238.001 376.848C238.001 376.848 224.163 385.259 206.951 392.251C195.95 396.7 179.178 399.243 177.858 403.155C174.288 413.814 213.455 405.16 227.83 404.035C242.45 402.861 266.214 419.682 279.71 410.734C288.511 404.915 279.368 390.833 280.15 382.912C280.932 374.99 285.822 321.106 290.809 314.554" fill="#C1FFE9"/>
<path d="M269.295 315.923C261.911 328.196 238.001 376.848 238.001 376.848C238.001 376.848 224.163 385.259 206.951 392.251C195.95 396.7 179.178 399.243 177.858 403.155C174.288 413.814 213.455 405.16 227.83 404.035C242.45 402.861 266.214 419.682 279.71 410.734C288.511 404.915 279.368 390.833 280.15 382.912C280.932 374.99 285.822 321.106 290.809 314.554" stroke="#1C2628" stroke-width="2.13" stroke-linecap="round" stroke-linejoin="round"/>
<path fill-rule="evenodd" clip-rule="evenodd" d="M344.939 336.118C344.939 336.118 281.617 226.686 242.5 259.545C221.181 277.441 202.502 376.36 202.502 376.36L240.886 384.77L266.508 343.012C266.508 343.012 277.901 394.647 299.024 404.524C310.906 410.099 358.972 413.228 382.247 407.849C400.339 403.693 399.996 386.139 399.996 386.139L344.939 336.118Z" fill="#1C2628" stroke="#1C2628" stroke-width="2.13" stroke-linecap="round" stroke-linejoin="round"/>
<path fill-rule="evenodd" clip-rule="evenodd" d="M249.835 319.981C242.452 332.255 218.541 380.907 218.541 380.907C218.541 380.907 204.703 389.317 187.492 396.309C176.49 400.759 159.718 403.302 158.398 407.213C154.78 417.873 186.563 413.326 200.938 412.201C215.559 411.027 241.376 417.629 249.689 411.076C258.001 404.524 252.085 395.82 257.61 384.721C264.651 370.59 276.729 353.085 281.716 346.532" fill="#C1FFE9"/>
<path d="M249.835 319.981C242.452 332.255 218.541 380.907 218.541 380.907C218.541 380.907 204.703 389.317 187.492 396.309C176.49 400.759 159.718 403.302 158.398 407.213C154.78 417.873 186.563 413.326 200.938 412.201C215.559 411.027 241.376 417.629 249.689 411.076C258.001 404.524 252.085 395.82 257.61 384.721C264.651 370.59 276.729 353.085 281.716 346.532" stroke="#1C2628" stroke-width="2.13" stroke-linecap="round" stroke-linejoin="round"/>
<path fill-rule="evenodd" clip-rule="evenodd" d="M307.288 225.268C287.925 205.905 290.663 177.545 293.939 174.806C328.509 146.055 348.215 179.94 357.31 179.403C379.607 182.141 395.791 192.018 397.649 207.616C399.263 221.307 397.649 255.388 371.098 251.77C354.718 246.147 309.097 256.611 295.064 245.12C287.485 238.91 292.326 193.827 287.191 185.564" fill="#1C2628"/>
<path d="M307.288 225.268C287.925 205.905 290.663 177.545 293.939 174.806C328.509 146.055 348.215 179.94 357.31 179.403C379.607 182.141 395.791 192.018 397.649 207.616C399.263 221.307 397.649 255.388 371.098 251.77C354.718 246.147 309.097 256.611 295.064 245.12C287.485 238.91 292.326 193.827 287.191 185.564" stroke="#1C2628" stroke-width="2.13" stroke-linecap="round" stroke-linejoin="round"/>
<path fill-rule="evenodd" clip-rule="evenodd" d="M430.949 384.232C430.949 384.232 430.558 384.476 429.776 384.867C424.886 387.214 405.376 394.5 384.546 374.012C381.955 371.47 379.363 368.487 376.772 365.064C350.025 329.369 332.129 323.355 332.129 323.355L297.07 258.811L295.456 255.877L272.572 229.131L300.981 210.11L369.241 224.143C369.241 224.143 385.035 210.55 402.394 232.456C406.354 237.492 410.413 244.338 414.422 253.677C422.735 273.187 423.468 316.852 424.202 348.635C424.739 369.123 430.949 384.232 430.949 384.232Z" fill="#FAF6EB" stroke="#1C2628" stroke-width="2.13" stroke-linecap="round" stroke-linejoin="round"/>
<path fill-rule="evenodd" clip-rule="evenodd" d="M341.761 205.416L351.394 223.752L367.97 232.26C367.97 232.26 361.515 247.467 348.069 252.357C334.622 257.247 327.972 253.188 322.544 251.281C317.068 249.374 311.738 240.866 311.738 240.866L317.85 230.989L311.885 223.166L341.761 205.416Z" fill="#C1FFE9" stroke="#1C2628" stroke-width="2.13" stroke-linecap="round" stroke-linejoin="round"/>
<path fill-rule="evenodd" clip-rule="evenodd" d="M338.143 192.018C336.334 186.591 339.463 184.928 335.503 181.505C328.462 175.344 318.829 172.948 309.881 176.029C299.808 179.452 288.659 182.092 287.682 192.752C287.29 196.859 292.376 207.861 293.794 212.115C298.879 227.273 314.33 235.732 328.315 230.989C337.263 227.957 342.984 223.117 344.94 213.924C345.967 208.839 339.952 197.495 338.143 192.018Z" fill="#C1FFE9" stroke="#1C2628" stroke-width="2.13" stroke-linecap="round" stroke-linejoin="round"/>
<path fill-rule="evenodd" clip-rule="evenodd" d="M305.039 209.425C306.066 214.755 304.354 220.525 307.435 221.112C311.493 221.845 314.281 213.19 314.085 212.066" fill="#C1FFE9"/>
<path d="M305.039 209.425C306.066 214.755 304.354 220.525 307.435 221.112C311.493 221.845 314.281 213.19 314.085 212.066" stroke="#1C2628" stroke-width="2.13" stroke-linecap="round" stroke-linejoin="round"/>
<path d="M325.43 210.012C326.164 214.657 323.621 217.396 319.562 218.374" stroke="#1C2628" stroke-width="2.13" stroke-linecap="round" stroke-linejoin="round"/>
<path fill-rule="evenodd" clip-rule="evenodd" d="M352.909 227.762L342.249 207.812C342.249 207.812 325.086 214.658 324.157 221.014C323.228 227.371 335.599 237.59 335.599 237.59L345.476 232.847" fill="#C1FFE9" fill-opacity="0.5"/>
<path fill-rule="evenodd" clip-rule="evenodd" d="M335.208 185.222C318.29 200.429 296.677 190.063 296.677 190.063C296.677 190.063 299.66 206.932 292.423 214.12C285.186 221.259 276.532 210.501 279.808 193.779C283.133 177.105 304.598 163.316 316.676 164.538C326.798 165.614 348.606 173.144 335.208 185.222Z" fill="#1C2628" stroke="#1C2628" stroke-width="2.13" stroke-linecap="round" stroke-linejoin="round"/>
<path fill-rule="evenodd" clip-rule="evenodd" d="M331.101 188.791C330.27 185.661 334.671 183.754 337.018 184.537C341.956 186.102 346.553 193.974 338.093 197.446" fill="#C1FFE9"/>
<path d="M331.101 188.791C330.27 185.661 334.671 183.754 337.018 184.537C341.956 186.102 346.553 193.974 338.093 197.446" stroke="#1C2628" stroke-width="2.13" stroke-linecap="round" stroke-linejoin="round"/>
<path d="M374.619 206.785C383.665 213.093 386.599 212.751 395.351 216.173" stroke="#FAF6EB" stroke-width="2.13" stroke-linecap="round" stroke-linejoin="round"/>
<path fill-rule="evenodd" clip-rule="evenodd" d="M145.635 320.226C139.181 319.883 140.501 304.579 146.369 303.405C153.361 301.987 162.994 312.842 156.735 319.101C154.877 321.008 148.178 320.372 145.635 320.226Z" fill="#49574E"/>
<path fill-rule="evenodd" clip-rule="evenodd" d="M312.569 231.185L322.641 231.674L331.883 228.3C331.883 228.3 328.362 238.079 323.424 242.187C318.534 246.294 306.75 246.245 306.75 246.245L312.569 231.185Z" fill="#1C2628" stroke="#1C2628" stroke-width="2.13" stroke-linecap="round" stroke-linejoin="round"/>
<path d="M336.186 189.916C336.234 190.16 336.283 190.356 336.332 190.6" stroke="#1C2628" stroke-width="2.13" stroke-linecap="round" stroke-linejoin="round"/>
<path fill-rule="evenodd" clip-rule="evenodd" d="M402.833 410.489C379.558 415.868 330.27 416.113 318.388 410.587C297.264 400.71 281.96 349.662 281.96 349.662L261.423 387.41L217.122 373.279L216.193 372.985C216.193 372.985 242.793 270.449 263.134 251.428C302.888 224.143 365.524 338.807 365.524 338.807L397.699 368.047L420.582 388.828C420.582 388.828 420.925 406.333 402.833 410.489Z" fill="#1C2628" stroke="#1C2628" stroke-width="2.13" stroke-linecap="round" stroke-linejoin="round"/>
<path fill-rule="evenodd" clip-rule="evenodd" d="M365.476 338.807C365.476 338.807 302.839 224.192 263.086 251.428C242.745 270.4 217.318 368.536 217.318 368.536C217.807 368.536 218.785 368.292 220.008 367.9C232.672 363.646 241.914 351.618 241.229 338.22C239.811 311.865 265.58 240.475 295.26 275.192C305.039 286.634 320.393 287.71 325.38 296.364C329.292 303.308 324.892 312.207 328.314 319.639C331.737 328.049 342.103 328.049 349.487 332.01C361.271 337.976 366.209 373.279 397.699 368.047L365.476 338.807Z" fill="#FAF6EB"/>
<path d="M311.689 203.558C316.09 201.602 318.731 200.918 319.415 195.343" stroke="#1C2628" stroke-width="2.13" stroke-linecap="round" stroke-linejoin="round"/>
<path d="M295.26 215.538C297.656 214.462 299.269 213.778 300.247 211.235" stroke="#1C2628" stroke-width="2.13" stroke-linecap="round" stroke-linejoin="round"/>
<path d="M283.77 188.84C279.125 193.534 275.311 207.567 279.027 213.826C280.445 216.173 284.063 216.369 285.041 218.374C289.197 226.735 279.027 230.207 293.5 236.417" stroke="#1C2628" stroke-width="2.13" stroke-linecap="round" stroke-linejoin="round"/>
<path d="M327.092 167.521C332.911 167.179 340.147 167.032 345.819 169.183C352.371 171.628 357.848 176.078 364.351 178.327C378.434 183.168 395.303 180.234 395.303 205.465" stroke="#1C2628" stroke-width="2.13" stroke-linecap="round" stroke-linejoin="round"/>
<path fill-rule="evenodd" clip-rule="evenodd" d="M366.943 274.41C366.259 269.569 364.743 254.998 362.689 236.563C361.565 226.1 363.178 211.919 363.178 211.919C363.178 211.919 361.174 209.621 359.804 211.382C358.435 213.142 357.897 218.912 357.751 218.912C355.404 218.423 341.761 189.818 338.192 191.627C335.6 192.899 346.26 209.328 346.26 209.328C346.26 209.328 334.623 190.649 332.569 192.312C330.222 194.219 342.153 211.43 342.153 211.43C342.153 211.43 331.151 193.388 328.266 194.757C325.43 196.126 338.143 214.267 337.801 214.413C336.774 214.853 326.31 198.277 324.208 199.304C322.203 200.282 332.52 216.027 335.6 224.437C339.952 236.172 333.645 312.5 351.492 326.925C361.369 334.895 375.989 334.308 385.329 323.16C394.619 312.011 405.719 282.429 405.719 282.429L379.705 254.411C379.705 254.362 367.432 277.832 366.943 274.41Z" fill="#C1FFE9" stroke="#1C2628" stroke-width="2.13" stroke-linecap="round" stroke-linejoin="round"/>
<path fill-rule="evenodd" clip-rule="evenodd" d="M389.679 224.29C389.679 224.29 358.825 208.008 363.519 242.822C367.773 270.204 365.573 277.197 365.573 277.197C365.573 277.197 366.893 275.387 379.264 282.869C391.635 290.35 400.876 303.894 400.876 303.894C400.876 303.894 412.661 271.231 407.624 258.127" fill="#FAF6EB"/>
<path d="M389.679 224.29C389.679 224.29 358.825 208.008 363.519 242.822C367.773 270.204 365.573 277.197 365.573 277.197C365.573 277.197 366.893 275.387 379.264 282.869C391.635 290.35 400.876 303.894 400.876 303.894C400.876 303.894 412.661 271.231 407.624 258.127" stroke="#1C2628" stroke-width="2.13" stroke-linecap="round" stroke-linejoin="round"/>
<path fill-rule="evenodd" clip-rule="evenodd" d="M272.572 228.984C272.572 228.984 251.448 248.641 269.638 258.42C287.828 268.2 335.649 256.22 335.649 256.22L346.651 255.731C346.651 255.731 347.286 258.616 349.927 268.395C352.518 278.126 353.79 289.812 357.066 294.751C360.391 299.689 360.977 294.848 360.977 294.848L359.07 276.708C359.07 276.708 362.689 297.733 364.498 296.755C366.356 295.778 364.889 275.925 364.889 275.925C364.889 275.925 370.855 295.826 372.028 295.582C373.202 295.337 371.637 274.605 371.637 274.605C371.637 274.605 376.087 300.814 376.869 295.093C377.651 289.372 377.456 274.458 375.255 257.442C374.18 249.179 366.112 234.461 349.976 232.114C340.441 230.745 272.572 228.984 272.572 228.984Z" fill="#C1FFE9" stroke="#1C2628" stroke-width="2.13" stroke-linecap="round" stroke-linejoin="round"/>
<path fill-rule="evenodd" clip-rule="evenodd" d="M288.756 214.951C284.501 240.035 301.909 234.559 301.909 234.559L313.008 231.234C313.008 231.234 300.442 225.122 299.562 223.899C298.584 222.53 292.081 212.408 291.347 210.844" fill="#1C2628"/>
<path d="M288.756 214.951C284.501 240.035 301.909 234.559 301.909 234.559L313.008 231.234C313.008 231.234 300.442 225.122 299.562 223.899C298.584 222.53 292.081 212.408 291.347 210.844" stroke="#1C2628" stroke-width="2.13" stroke-linecap="round" stroke-linejoin="round"/>
<path d="M319.855 263.701C318.241 266.879 325.576 287.856 339.414 287.856L319.855 263.701Z" fill="#FAF6EB"/>
<path d="M319.855 263.701C318.241 266.879 325.576 287.856 339.414 287.856" stroke="#1C2628" stroke-width="2.13" stroke-linecap="round" stroke-linejoin="round"/>
<path d="M273.256 365.7C274.185 364.575 282.008 349.662 282.008 349.662C282.008 349.662 285.578 363.01 288.414 369.318C295.357 384.916 304.648 400.417 317.85 407.604" stroke="#FAF6EB" stroke-width="2.13" stroke-linecap="round" stroke-linejoin="round"/>
<path fill-rule="evenodd" clip-rule="evenodd" d="M408.555 275.192L404.105 314.603L386.453 322.524L398.384 300.032L401.024 303.943L408.555 275.192Z" fill="#1C2628" stroke="#1C2628" stroke-width="2.13" stroke-linecap="round" stroke-linejoin="round"/>
<path fill-rule="evenodd" clip-rule="evenodd" d="M362.982 331.961C365.525 338.807 374.033 345.994 376.82 351.666C389.778 377.875 389.631 400.319 424.739 386.285" fill="#FAF6EB"/>
<path d="M362.982 331.961C365.525 338.807 374.033 345.994 376.82 351.666C389.778 377.875 389.631 400.319 424.739 386.285" stroke="#1C2628" stroke-width="2.13" stroke-linecap="round" stroke-linejoin="round"/>
<path d="M379.607 344.332C382.835 350.591 385.817 357.094 388.604 363.597C392.712 373.279 397.748 389.268 412.319 384.134" stroke="#1C2628" stroke-width="2.13" stroke-linecap="round" stroke-linejoin="round"/>
<path fill-rule="evenodd" clip-rule="evenodd" d="M260.103 387.019C255.067 387.948 242.403 384.721 232.183 385.161C228.663 385.308 225.631 383.645 225.631 383.645C225.631 383.645 219.225 379.342 217.221 380.76C215.46 381.983 215.656 386.53 215.656 386.53C215.656 386.53 212.135 388.437 211.891 390.784C211.842 391.371 211.891 394.011 211.891 394.011C211.891 394.011 212.282 397.336 213.456 400.221C214.629 403.106 232.868 405.844 242.5 408.68C245.19 409.463 260.299 414.401 267.78 413.032" fill="#C1FFE9"/>
<path d="M260.103 387.019C255.067 387.948 242.403 384.721 232.183 385.161C228.663 385.308 225.631 383.645 225.631 383.645C225.631 383.645 219.225 379.342 217.221 380.76C215.46 381.983 215.656 386.53 215.656 386.53C215.656 386.53 212.135 388.437 211.891 390.784C211.842 391.371 211.891 394.011 211.891 394.011C211.891 394.011 212.282 397.336 213.456 400.221C214.629 403.106 232.868 405.844 242.5 408.68C245.19 409.463 260.299 414.401 267.78 413.032" stroke="#1C2628" stroke-width="2.13" stroke-linecap="round" stroke-linejoin="round"/>
<path d="M272.424 401.541C268.268 399.83 264.259 399.928 259.956 398.901C255.604 397.874 251.203 396.114 247.047 394.451" stroke="#1C2628" stroke-width="2.13" stroke-linecap="round" stroke-linejoin="round"/>
<path d="M217.025 392.153C215.803 394.745 215.07 396.456 214.238 399.194" stroke="#1C2628" stroke-width="2.13" stroke-linecap="round" stroke-linejoin="round"/>
<path d="M175.268 154.319L429.825 154.417" stroke="#1C2628" stroke-width="2.13" stroke-linecap="round" stroke-linejoin="round"/>
<path fill-rule="evenodd" clip-rule="evenodd" d="M326.848 185.906C326.848 180.919 331.004 176.86 336.138 176.86C341.272 176.86 345.428 180.919 345.428 185.906C345.428 190.894 341.272 194.952 336.138 194.952C331.004 194.903 326.848 190.894 326.848 185.906Z" fill="#FAF6EB" stroke="#1C2628" stroke-width="2.13" stroke-linecap="round" stroke-linejoin="round"/>
<path fill-rule="evenodd" clip-rule="evenodd" d="M278.879 196.566C278.879 196.566 273.256 177.985 292.57 167.325C315.356 154.71 335.355 181.114 335.355 181.114L331.932 186.542C331.932 186.542 306.457 167.032 285.529 181.652C275.554 188.596 278.879 196.566 278.879 196.566Z" fill="#FAF6EB" stroke="#1C2628" stroke-width="2.13" stroke-linecap="round" stroke-linejoin="round"/>
<path fill-rule="evenodd" clip-rule="evenodd" d="M331.15 185.27C331.15 182.434 333.4 180.087 336.138 180.087C338.876 180.087 341.125 182.386 341.125 185.27C341.125 188.106 338.876 190.454 336.138 190.454C333.4 190.454 331.15 188.155 331.15 185.27Z" fill="#FAF6EB" stroke="#1C2628" stroke-width="2.13" stroke-linecap="round" stroke-linejoin="round"/>
<path fill-rule="evenodd" clip-rule="evenodd" d="M180.451 196.517C171.992 186.2 160.354 180.479 151.895 169.428C131.994 143.366 140.747 112.023 151.357 84.2495C171.16 122.291 180.451 160.333 180.451 196.517Z" fill="#49574E"/>
<path fill-rule="evenodd" clip-rule="evenodd" d="M180.939 195.001C169.351 143.952 189.252 119.504 206.121 75.3501C205.192 116.228 224.311 166.592 180.939 195.001Z" fill="#49574E"/>
<path fill-rule="evenodd" clip-rule="evenodd" d="M180.108 201.993C179.961 173.29 213.749 150.798 221.621 124.442C232.623 150.944 214.776 203.949 180.108 201.993Z" fill="#49574E"/>
<path fill-rule="evenodd" clip-rule="evenodd" d="M174.191 184.244H191.11C204.165 184.244 214.727 194.903 214.727 208.008C214.727 221.112 204.165 231.771 191.11 231.771H174.191C161.136 231.771 150.574 221.112 150.574 208.008C150.574 194.854 161.136 184.244 174.191 184.244Z" fill="#C1FFE9"/>
<mask id="mask0_394_375" style="mask-type:luminance" maskUnits="userSpaceOnUse" x="150" y="184" width="65" height="48">
<path d="M174.191 184.244H191.11C204.165 184.244 214.727 194.903 214.727 208.008C214.727 221.112 204.165 231.771 191.11 231.771H174.191C161.136 231.771 150.574 221.112 150.574 208.008C150.574 194.854 161.136 184.244 174.191 184.244Z" fill="white"/>
</mask>
<g mask="url(#mask0_394_375)">
<path d="M143.826 223.019C176 160.138 169.595 307.464 154.681 233.434C149.058 205.563 197.711 186.982 215.9 191.872C232.036 196.175 206.561 218.423 194.532 234.021C192.968 236.026 189.691 234.901 189.74 232.065C185.78 205.661 223.186 198.473 242.109 202.385" stroke="#1C2628" stroke-width="2.13" stroke-linecap="round" stroke-linejoin="round"/>
</g>
<path d="M174.191 184.244H191.11C204.165 184.244 214.727 194.903 214.727 208.008C214.727 221.112 204.165 231.771 191.11 231.771H174.191C161.136 231.771 150.574 221.112 150.574 208.008C150.574 194.854 161.136 184.244 174.191 184.244Z" stroke="#1C2628" stroke-width="2.13" stroke-linecap="round" stroke-linejoin="round"/>
<path d="M458.723 184.684H499.6V203.509H458.723" stroke="#1C2628" stroke-width="2.13" stroke-linecap="round" stroke-linejoin="round"/>
<path d="M130.624 349.515H89.7461V368.292H130.624V349.515Z" stroke="#1C2628" stroke-width="2.13" stroke-linecap="round" stroke-linejoin="round"/>
<path d="M85.6877 368.731H68.8672V387.557" stroke="#1C2628" stroke-width="2.13" stroke-linecap="round" stroke-linejoin="round"/>
<path d="M109.744 387.557V378.168" stroke="#1C2628" stroke-width="2.13" stroke-linecap="round" stroke-linejoin="round"/>
<path d="M132.679 220.231H91.8008V239.008H132.679V220.231Z" stroke="#1C2628" stroke-width="2.13" stroke-linecap="round" stroke-linejoin="round"/>
<path d="M307.582 261.892C307.582 261.892 329.537 283.895 340.098 299.102L307.582 261.892Z" fill="#FAF6EB"/>
<path d="M307.582 261.892C307.582 261.892 329.537 283.895 340.098 299.102" stroke="#1C2628" stroke-width="2.13" stroke-linecap="round" stroke-linejoin="round"/>
<path fill-rule="evenodd" clip-rule="evenodd" d="M414.471 253.726C410.51 244.387 406.452 237.492 402.442 232.505C398.188 235.145 394.765 239.008 393.69 243.213C390.609 254.997 407.625 261.207 414.08 286.096C415.351 290.986 418.236 302.476 415.253 316.021C413.688 323.257 410.168 332.646 407.772 339.051C404.447 347.999 409.043 358.121 418.089 361.006C418.334 361.104 418.578 361.153 418.774 361.201C420.974 361.837 423.223 362.424 425.473 363.011C424.788 358.659 424.299 353.867 424.201 348.684C423.517 316.95 422.783 273.285 414.471 253.726Z" fill="#1C2628" stroke="#1C2628" stroke-width="2.13" stroke-linecap="round" stroke-linejoin="round"/>
<path d="M304.012 295.484C307.386 296.315 311.102 297.342 313.058 300.227C314.329 302.085 314.622 304.383 314.916 306.632C315.454 310.691 316.04 314.847 317.801 318.514" stroke="white" stroke-width="2.13" stroke-linecap="round" stroke-linejoin="round"/>
<path d="M307.729 305.508C309.782 307.806 310.565 310.984 310.907 314.016C311.249 317.047 311.298 320.226 312.178 323.16" stroke="white" stroke-width="2.13" stroke-linecap="round" stroke-linejoin="round"/>
<path d="M331.932 332.988C332.861 334.895 334.914 335.922 336.919 336.557C338.924 337.193 341.075 337.437 342.933 338.366C346.552 340.225 348.508 344.136 350.512 347.706C352.615 351.373 355.109 354.845 357.847 358.072" stroke="white" stroke-width="2.13" stroke-linecap="round" stroke-linejoin="round"/>
<path d="M347.922 353.182C350.856 359.001 355.305 364.037 360.635 367.753" stroke="white" stroke-width="2.13" stroke-linecap="round" stroke-linejoin="round"/>
<path d="M309.146 388.682C315.552 400.172 328.461 407.654 341.565 407.409" stroke="white" stroke-width="2.13" stroke-linecap="round" stroke-linejoin="round"/>
<path d="M330.025 398.167C335.16 401.101 341.223 402.324 347.042 401.59" stroke="white" stroke-width="2.13" stroke-linecap="round" stroke-linejoin="round"/>
<path d="M221.816 322.035C220.545 327.609 219.273 333.184 217.953 338.758" stroke="white" stroke-width="2.13" stroke-linecap="round" stroke-linejoin="round"/>
<path d="M229.396 315.728L225.924 328.001" stroke="white" stroke-width="2.13" stroke-linecap="round" stroke-linejoin="round"/>
<path d="M407.527 328C403.567 335.726 401.66 344.479 402.002 353.133C402.1 355.383 402.344 357.73 403.469 359.686C404.594 361.642 406.794 363.108 409.043 362.766C409.483 362.668 409.972 362.522 410.315 362.228C411.195 361.446 411.048 359.832 410.119 359.05C409.19 358.268 407.821 358.219 406.745 358.659C405.425 361.299 407.087 364.673 409.63 366.238C412.124 367.803 415.204 367.998 418.138 368.194" stroke="#1C2628" stroke-width="2.13" stroke-linecap="round" stroke-linejoin="round"/>
<path fill-rule="evenodd" clip-rule="evenodd" d="M255.409 227.566C253.844 226.491 252.768 224.73 252.524 222.823C252.133 219.645 254.871 216.076 258.049 216.662C261.13 217.249 262.499 220.916 262.694 224.046C262.792 225.219 262.694 226.54 261.912 227.42C260.445 228.984 257.853 227.86 255.751 228.3" fill="#1C2628"/>
<path d="M255.409 227.566C253.844 226.491 252.768 224.73 252.524 222.823C252.133 219.645 254.871 216.076 258.049 216.662C261.13 217.249 262.499 220.916 262.694 224.046C262.792 225.219 262.694 226.54 261.912 227.42C260.445 228.984 257.853 227.86 255.751 228.3" stroke="#1C2628" stroke-width="2.13" stroke-linecap="round" stroke-linejoin="round"/>
<path d="M236.338 339.247C236.827 345.065 233.894 351.08 229.053 354.258" stroke="#1C2628" stroke-width="2.13" stroke-linecap="round" stroke-linejoin="round"/>
<path d="M230.08 343.403C230.422 344.968 229.933 346.679 228.809 347.804" stroke="#1C2628" stroke-width="2.13" stroke-linecap="round" stroke-linejoin="round"/>
<path d="M177.809 160.871C177.32 169.673 178.053 178.132 179.325 184.879" stroke="white" stroke-width="2.13" stroke-linecap="round" stroke-linejoin="round"/>
<path d="M151.797 106.058C151.895 116.081 153.41 126.008 154.975 135.885C155.855 141.459 156.735 147.082 158.447 152.461C159.963 157.253 162.114 161.751 164.266 166.299C167.004 172.02 169.742 177.789 173.8 182.63" stroke="white" stroke-width="2.13" stroke-linecap="round" stroke-linejoin="round"/>
<path d="M202.893 99.8965C201.426 128.257 196.194 156.421 187.344 183.363" stroke="white" stroke-width="2.13" stroke-linecap="round" stroke-linejoin="round"/>
<path d="M221.817 125.421C220.644 147.18 211.402 168.45 196.342 184.097" stroke="white" stroke-width="2.13" stroke-linecap="round" stroke-linejoin="round"/>
<path d="M143.973 117.157C145.586 117.695 146.906 118.966 147.591 120.58C148.178 121.949 148.324 123.66 149.498 124.59C150.231 125.127 151.258 125.225 152.138 125.47C153.019 125.714 153.997 126.399 153.997 127.328C156.588 125.616 159.473 123.465 159.717 120.335C159.815 119.406 159.669 118.331 160.255 117.597C160.793 116.962 161.673 116.815 162.456 116.619C163.238 116.424 164.118 115.935 164.216 115.104" stroke="white" stroke-width="2.13" stroke-linecap="round" stroke-linejoin="round"/>
<path d="M141.576 134.124C143.923 134.956 145.928 136.716 147.053 138.916C147.248 139.259 147.395 139.65 147.688 139.943C148.911 141.263 151.258 140.286 152.822 141.166C154.192 141.948 154.778 143.953 156.294 144.099C157.37 142.144 160.206 141.459 160.744 139.308C160.842 138.965 160.842 138.574 161.037 138.281C161.722 137.058 163.629 137.841 164.9 137.401C166.66 136.765 166.905 133.978 168.714 133.44" stroke="white" stroke-width="2.13" stroke-linecap="round" stroke-linejoin="round"/>
<path d="M171.796 146.251C169.84 147.767 168.569 150.065 168.324 152.559C168.275 153.048 168.275 153.586 167.982 153.977C167.591 154.563 166.808 154.71 166.124 154.955C163.875 155.639 161.772 157.497 161.136 159.747C160.99 159.111 160.305 158.72 159.67 158.622C159.034 158.524 158.398 158.671 157.714 158.671C156.54 158.72 155.367 158.377 154.34 157.693C153.509 157.155 152.677 156.373 151.748 156.666C151.406 156.764 151.113 157.008 150.819 157.204C149.841 157.791 148.619 157.84 147.494 157.497C146.418 157.155 145.489 156.422 144.658 155.639" stroke="white" stroke-width="2.13" stroke-linecap="round" stroke-linejoin="round"/>
<path d="M175.952 161.996C175.268 164.783 174.29 167.863 171.747 169.135C171.209 169.428 170.574 169.575 170.085 169.917C169.107 170.504 167.249 172.264 167.2 173.437C166.173 173.535 165.342 172.704 164.413 172.313C162.848 171.677 161.43 172.949 159.719 173.046C158.007 173.193 155.954 172.166 154.291 171.726" stroke="white" stroke-width="2.13" stroke-linecap="round" stroke-linejoin="round"/>
<path d="M165.193 179.843C166.416 180.479 167.834 180.968 169.203 180.772C169.79 180.674 170.328 180.479 170.914 180.528C171.892 180.625 172.675 181.408 173.31 182.19C173.408 181.114 173.506 179.892 174.386 179.256C174.826 178.914 175.462 178.767 175.902 178.425C176.391 178.083 176.684 177.349 176.244 176.909" stroke="white" stroke-width="2.13" stroke-linecap="round" stroke-linejoin="round"/>
<path d="M196.83 102.048C198.004 102.928 198.737 104.395 198.737 105.862C198.737 106.204 198.688 106.595 198.835 106.938C199.226 107.964 200.84 107.964 201.329 108.942C201.622 109.578 201.426 110.458 201.964 110.898C202.258 110.263 202.551 109.627 203.187 109.333C203.871 108.991 204.654 109.285 205.436 109.138C206.414 108.991 207.196 108.111 207.245 107.133" stroke="white" stroke-width="2.13" stroke-linecap="round" stroke-linejoin="round"/>
<path d="M189.643 120.384C190.034 121.753 191.305 122.829 192.723 122.927C193.505 122.976 194.337 122.731 195.07 123.025C195.901 123.367 196.39 124.247 196.635 125.176C196.879 126.105 196.977 126.985 197.368 127.817C197.759 128.648 199.129 130.31 200.058 130.115C200.742 129.968 200.742 128.354 201.427 128.159C202.405 127.866 203.578 128.599 204.458 128.061C204.996 127.719 205.192 127.034 205.632 126.692C206.512 126.007 208.223 126.301 208.517 125.225" stroke="white" stroke-width="2.13" stroke-linecap="round" stroke-linejoin="round"/>
<path d="M182.699 142.486C184.606 142.535 186.464 143.708 187.344 145.42C188.127 146.887 188.273 148.891 189.74 149.723C190.376 150.114 191.207 150.163 191.941 150.358C193.652 150.847 195.021 152.265 195.412 153.977C196.146 152.607 197.955 152.412 199.52 152.412C201.084 152.412 202.796 152.461 203.823 151.287C204.116 150.945 207.001 147.082 209.593 146.74" stroke="white" stroke-width="2.13" stroke-linecap="round" stroke-linejoin="round"/>
<path d="M179.178 161.018C179.96 161.066 180.498 161.8 180.791 162.533C181.085 163.267 181.329 164.049 182.014 164.489C182.943 165.076 184.165 164.685 185.241 164.88C187.93 165.418 188.37 169.379 190.717 170.846" stroke="white" stroke-width="2.13" stroke-linecap="round" stroke-linejoin="round"/>
<path d="M212.674 145.175C213.065 146.104 213.261 147.131 213.261 148.158C213.261 149.184 213.163 150.309 213.798 151.091C214.19 151.58 214.825 151.825 215.119 152.363C215.216 152.509 215.265 152.705 215.363 152.852C215.608 153.145 216.048 153.096 216.439 153.047C217.368 152.901 218.346 152.901 219.275 152.901C220.008 152.949 220.791 152.998 221.475 152.803C222.16 152.607 222.893 152.02 222.942 151.287" stroke="white" stroke-width="2.13" stroke-linecap="round" stroke-linejoin="round"/>
<path d="M203.676 158.524C205.094 158.768 206.365 159.746 206.952 161.067C207.343 161.947 207.49 163.022 208.125 163.756C209.152 164.881 210.913 164.685 212.428 164.978C213.797 165.223 215.069 165.956 216.487 166.054C218.051 166.152 219.665 165.418 220.594 164.147" stroke="white" stroke-width="2.13" stroke-linecap="round" stroke-linejoin="round"/>
<path d="M193.945 174.415C196.146 174.22 198.346 175.491 199.373 177.447C199.568 177.838 199.715 178.229 200.057 178.572C200.986 179.501 202.551 178.816 203.822 179.012C204.654 179.158 205.338 179.647 206.121 179.99C208.223 180.919 210.864 180.381 212.477 178.718" stroke="white" stroke-width="2.13" stroke-linecap="round" stroke-linejoin="round"/>
<path d="M209.592 146.691C200.155 156.226 190.718 170.846 186.953 184.684" stroke="white" stroke-width="2.13" stroke-linecap="round" stroke-linejoin="round"/>
<path d="M280.199 129.626L284.991 145.028" stroke="#1C2628" stroke-width="2.13" stroke-linecap="round" stroke-linejoin="round"/>
<path d="M323.033 120.824L319.121 146.788" stroke="#1C2628" stroke-width="2.13" stroke-linecap="round" stroke-linejoin="round"/>
<path d="M336.138 136.667L332.666 148.549" stroke="#1C2628" stroke-width="2.13" stroke-linecap="round" stroke-linejoin="round"/>
<path d="M374.179 111.143L354.963 149.429" stroke="#1C2628" stroke-width="2.13" stroke-linecap="round" stroke-linejoin="round"/>
<path d="M389.483 143.268L368.066 164.832" stroke="#1C2628" stroke-width="2.13" stroke-linecap="round" stroke-linejoin="round"/>
<path d="M385.572 171.872L401.708 163.951" stroke="#1C2628" stroke-width="2.13" stroke-linecap="round" stroke-linejoin="round"/>
<path d="M357.848 407.605L412.319 407.409" stroke="white" stroke-width="2.13" stroke-linecap="round" stroke-linejoin="round"/>
<path d="M227.635 84.2495H439.994V350.395" stroke="#1C2628" stroke-width="2.13" stroke-linecap="round" stroke-linejoin="round"/>
<path d="M167.688 252.063V388.681" stroke="#1C2628" stroke-width="2.13" stroke-linecap="round" stroke-linejoin="round"/>
<path d="M180.693 26.5512C183.043 26.5512 184.948 24.6247 184.948 22.2482C184.948 19.8718 183.043 17.9453 180.693 17.9453C178.344 17.9453 176.439 19.8718 176.439 22.2482C176.439 24.6247 178.344 26.5512 180.693 26.5512Z" fill="#1C2628" stroke="#1C2628" stroke-width="2.13" stroke-linecap="round" stroke-linejoin="round"/>
<path d="M201.915 287.66L208.027 260.376C208.662 261.696 209.836 263.212 211.89 265.363L212.574 266.048C215.41 268.835 220.153 273.578 217.073 278.272C216.828 278.614 216.926 279.103 217.268 279.299C217.415 279.397 217.562 279.446 217.66 279.446C217.904 279.446 218.148 279.348 218.295 279.103C222.06 273.382 216.535 267.906 213.601 264.972L212.917 264.288C209.151 260.425 208.76 258.811 208.662 257.198L210.276 250.059C210.912 251.379 212.085 252.895 214.188 255.046L214.921 255.78C217.757 258.567 222.5 263.31 219.42 268.004C219.175 268.346 219.273 268.835 219.615 269.031C219.762 269.128 219.909 269.177 220.007 269.177C220.251 269.177 220.496 269.08 220.642 268.835C224.407 263.114 218.882 257.638 215.948 254.753L215.264 254.068C211.45 250.156 211.107 248.592 211.01 246.929C211.01 246.538 210.716 246.245 210.227 246.196C209.836 246.196 209.494 246.538 209.494 246.978C209.445 247.027 209.445 247.076 209.396 247.174L200.888 285.558C199.177 283.553 195.949 282.575 192.527 283.26C187.979 284.189 184.801 287.709 185.485 291.132C186.17 294.604 190.424 296.657 194.971 295.728C199.519 294.848 202.697 291.279 202.013 287.856C201.964 287.807 201.964 287.758 201.915 287.66Z" fill="#1C2628" stroke="#1C2628" stroke-width="2.13" stroke-linecap="round" stroke-linejoin="round"/>
<path d="M157.615 190.6L180.499 22.0527L207.783 191.529" stroke="#1C2628" stroke-width="2.13" stroke-linecap="round" stroke-linejoin="round"/>
<path d="M0 405.364C0 345.922 53.9873 301.089 112.418 312.007L279.683 343.264C291.915 345.55 304.467 345.532 316.693 343.213L479.364 312.347C537.779 301.263 591.867 346.053 591.867 405.511C591.867 457.882 549.412 500.337 497.041 500.337H94.973C42.5209 500.337 0 457.817 0 405.364Z" fill="url(#paint0_linear_394_375)"/>
<defs>
<linearGradient id="paint0_linear_394_375" x1="295.934" y1="349.77" x2="295.934" y2="500.337" gradientUnits="userSpaceOnUse">
<stop stop-color="#FFFDD1" stop-opacity="0"/>
<stop offset="0.432292" stop-color="#FFFDD1"/>
</linearGradient>
</defs>
</svg>
